<svg xmlns="http://www.w3.org/2000/svg" id="canvas" viewBox="707.494 236.090 105.695 248.153"><path d="M 710.51,328.92 C 710.33 332.66, 711.67 337.74, 712.78 347.25 C 713.89 356.76, 714.24 363.95, 716.05 376.46 C 717.86 388.97, 719.39 397.34, 721.84 409.79 C 724.28 422.24, 725.71 428.46, 728.28 438.70 C 730.85 448.95, 732.46 453.62, 734.70 461.01 C 736.93 468.39, 737.27 471.59, 739.46 475.63 C 741.65 479.67, 743.63 481.52, 745.65 481.21 C 747.66 480.89, 748.33 478.86, 749.54 474.05 C 750.76 469.24, 750.67 465.81, 751.71 457.15 C 752.75 448.49, 753.25 442.69, 754.75 430.73 C 756.25 418.77, 756.96 411.43, 759.22 397.34 C 761.47 383.24, 762.93 375.10, 766.03 360.26 C 769.13 345.43, 770.90 337.27, 774.72 323.16 C 778.53 309.05, 780.86 301.52, 785.09 289.70 C 789.32 277.88, 792.03 272.13, 795.85 264.04 C 799.67 255.95, 801.53 253.51, 804.19 249.25 C 806.85 244.99, 807.94 244.50, 809.14 242.74 C 810.34 240.98, 810.14 241.12, 810.18 240.44 C 810.22 239.75, 810.15 239.35, 809.34 239.29 C 808.53 239.23, 807.82 238.54, 806.12 240.13 C 804.42 241.73, 803.42 242.72, 800.85 247.27 C 798.29 251.82, 796.89 254.56, 793.31 262.90 C 789.73 271.23, 787.06 277.00, 782.95 288.95 C 778.84 300.89, 776.52 308.45, 772.74 322.63 C 768.95 336.81, 767.17 344.97, 764.01 359.84 C 760.85 374.70, 759.36 382.86, 756.93 396.96 C 754.51 411.06, 753.69 418.40, 751.87 430.33 C 750.05 442.26, 749.28 448.03, 747.85 456.60 C 746.42 465.16, 745.24 468.65, 744.72 473.15 C 744.20 477.66, 745.50 478.98, 745.24 479.11 C 744.98 479.24, 744.89 477.61, 743.40 473.78 C 741.92 469.96, 740.31 467.15, 737.81 459.99 C 735.31 452.84, 733.58 448.17, 730.90 438.03 C 728.23 427.89, 726.86 421.67, 724.43 409.28 C 722.00 396.89, 720.52 388.54, 718.76 376.07 C 716.99 363.60, 716.61 356.44, 715.60 346.94 C 714.58 337.43, 714.71 332.16, 713.70 328.56 C 712.68 324.96, 710.69 325.18, 710.51 328.92" style="stroke: black; fill: black;"/></svg>