<svg xmlns="http://www.w3.org/2000/svg" id="canvas" viewBox="707.170 228.786 92.955 206.999"><path d="M 710.27,294.95 C 709.82 298.18, 710.99 302.60, 711.72 310.81 C 712.45 319.01, 712.74 324.80, 713.92 335.97 C 715.10 347.14, 715.85 355.15, 717.61 366.66 C 719.36 378.17, 720.47 383.99, 722.69 393.53 C 724.91 403.06, 726.09 407.45, 728.71 414.34 C 731.32 421.23, 732.51 424.30, 735.75 427.98 C 739.00 431.66, 741.24 433.06, 744.95 432.74 C 748.66 432.42, 750.78 431.11, 754.28 426.36 C 757.78 421.60, 759.21 418.05, 762.46 408.97 C 765.70 399.90, 767.14 393.35, 770.53 380.97 C 773.91 368.58, 776.05 360.94, 779.37 347.04 C 782.69 333.14, 784.41 324.55, 787.12 311.47 C 789.83 298.39, 791.13 292.15, 792.92 281.64 C 794.71 271.13, 795.22 266.47, 796.06 258.93 C 796.89 251.38, 796.99 248.60, 797.09 243.92 C 797.20 239.23, 797.05 237.77, 796.59 235.48 C 796.13 233.19, 795.41 233.19, 794.77 232.45 C 794.14 231.71, 793.87 231.84, 793.42 231.79 C 792.97 231.75, 792.83 231.99, 792.52 232.23 C 792.21 232.48, 792.21 232.21, 791.88 233.02 C 791.55 233.83, 790.72 234.05, 790.87 236.26 C 791.02 238.47, 792.22 239.58, 792.63 244.06 C 793.04 248.54, 793.37 251.23, 792.92 258.66 C 792.48 266.09, 792.02 270.76, 790.41 281.23 C 788.80 291.70, 787.53 297.95, 784.86 311.00 C 782.19 324.05, 780.46 332.64, 777.07 346.48 C 773.67 360.33, 771.46 367.97, 767.87 380.22 C 764.29 392.47, 762.58 399.03, 759.15 407.73 C 755.72 416.43, 753.65 419.71, 750.71 423.74 C 747.77 427.76, 746.79 427.59, 744.47 427.87 C 742.14 428.14, 741.57 428.07, 739.06 425.11 C 736.55 422.15, 734.62 419.52, 731.92 413.06 C 729.22 406.61, 727.86 402.21, 725.58 392.84 C 723.30 383.47, 722.23 377.65, 720.51 366.22 C 718.79 354.78, 718.09 346.79, 716.98 335.66 C 715.86 324.52, 715.54 318.74, 714.94 310.55 C 714.34 302.35, 714.92 297.79, 713.98 294.67 C 713.05 291.55, 710.72 291.72, 710.27 294.95" style="stroke: black; fill: black;"/></svg>