<svg xmlns="http://www.w3.org/2000/svg" id="canvas" viewBox="721.389 200.779 116.084 262.079"><path d="M 724.51,270.02 C 724.02 271.91, 725.12 273.81, 725.98 278.52 C 726.84 283.24, 727.68 286.21, 728.80 293.61 C 729.93 301.01, 730.70 305.89, 731.60 315.53 C 732.51 325.17, 732.74 330.93, 733.34 341.80 C 733.94 352.67, 734.32 358.88, 734.59 369.89 C 734.86 380.90, 734.85 386.71, 734.69 396.85 C 734.54 406.99, 734.22 411.91, 733.82 420.58 C 733.42 429.25, 733.03 433.73, 732.71 440.19 C 732.40 446.64, 731.95 449.08, 732.25 452.85 C 732.55 456.62, 732.81 458.06, 734.22 459.05 C 735.63 460.05, 737.80 460.58, 739.31 457.83 C 740.82 455.07, 740.19 452.50, 741.76 445.27 C 743.33 438.04, 744.16 432.92, 747.15 421.67 C 750.15 410.43, 752.20 403.40, 756.72 389.04 C 761.25 374.68, 764.26 365.72, 769.78 349.89 C 775.30 334.05, 778.55 325.10, 784.32 309.86 C 790.08 294.62, 793.20 286.86, 798.61 273.69 C 804.02 260.53, 806.70 254.05, 811.36 244.04 C 816.03 234.03, 818.27 229.93, 821.92 223.65 C 825.58 217.37, 827.35 215.88, 829.64 212.64 C 831.93 209.40, 832.40 208.91, 833.37 207.44 C 834.33 205.98, 834.44 206.02, 834.47 205.31 C 834.50 204.60, 834.32 204.03, 833.50 203.91 C 832.69 203.79, 831.91 203.46, 830.39 204.70 C 828.86 205.94, 828.12 206.62, 825.88 210.12 C 823.64 213.61, 822.54 215.59, 819.21 222.18 C 815.87 228.77, 813.71 232.92, 809.22 243.07 C 804.73 253.22, 802.10 259.72, 796.76 272.94 C 791.43 286.17, 788.33 293.94, 782.56 309.20 C 776.80 324.46, 773.54 333.41, 767.93 349.24 C 762.33 365.07, 759.29 374.02, 754.54 388.34 C 749.79 402.65, 747.60 409.66, 744.18 420.82 C 740.75 431.98, 739.57 437.10, 737.42 444.14 C 735.27 451.17, 733.68 453.14, 733.43 455.99 C 733.19 458.84, 735.33 459.06, 736.20 458.40 C 737.07 457.74, 737.68 456.33, 737.78 452.70 C 737.88 449.07, 736.85 446.64, 736.70 440.24 C 736.54 433.84, 736.84 429.35, 737.01 420.68 C 737.17 412.01, 737.46 407.05, 737.53 396.88 C 737.60 386.71, 737.61 380.87, 737.37 369.83 C 737.12 358.78, 736.76 352.57, 736.31 341.66 C 735.85 330.74, 735.74 324.97, 735.10 315.25 C 734.46 305.53, 733.93 300.59, 733.11 293.05 C 732.30 285.52, 731.97 282.36, 731.03 277.57 C 730.09 272.78, 729.73 270.59, 728.43 269.08 C 727.12 267.57, 725.00 268.13, 724.51 270.02" style="stroke: black; fill: black;"/></svg>