<svg xmlns="http://www.w3.org/2000/svg" id="canvas" viewBox="707.140 288.000 98.404 163.554"><path d="M 710.16,332.68 C 710.42 335.19, 713.08 337.64, 715.27 343.44 C 717.45 349.24, 718.92 353.14, 721.09 361.67 C 723.26 370.20, 724.51 376.31, 726.12 386.09 C 727.74 395.88, 728.21 401.68, 729.17 410.59 C 730.12 419.51, 730.35 423.85, 730.90 430.66 C 731.45 437.47, 730.87 441.06, 731.92 444.63 C 732.98 448.21, 734.55 448.68, 736.18 448.53 C 737.82 448.38, 738.70 447.39, 740.09 443.88 C 741.48 440.38, 741.13 437.95, 743.13 431.00 C 745.13 424.06, 746.46 419.17, 750.10 409.15 C 753.73 399.13, 756.35 392.48, 761.31 380.91 C 766.26 369.33, 769.60 362.49, 774.85 351.26 C 780.10 340.02, 783.11 333.87, 787.57 324.75 C 792.02 315.62, 794.16 311.86, 797.14 305.61 C 800.12 299.36, 801.97 296.17, 802.46 293.51 C 802.95 290.84, 801.18 290.10, 799.59 292.27 C 797.99 294.44, 797.39 298.11, 794.49 304.36 C 791.58 310.61, 789.45 314.37, 785.06 323.53 C 780.66 332.69, 777.76 338.91, 772.51 350.16 C 767.25 361.42, 763.90 368.25, 758.78 379.81 C 753.67 391.36, 750.95 397.98, 746.93 407.93 C 742.91 417.88, 741.21 422.69, 738.69 429.55 C 736.17 436.42, 734.93 438.71, 734.33 442.26 C 733.73 445.81, 735.13 447.01, 735.68 447.31 C 736.23 447.61, 737.23 447.16, 737.08 443.74 C 736.92 440.32, 735.81 436.94, 734.91 430.23 C 734.01 423.52, 733.65 419.14, 732.58 410.21 C 731.51 401.27, 731.13 395.43, 729.57 385.54 C 728.01 375.65, 726.86 369.46, 724.77 360.76 C 722.69 352.05, 721.30 347.99, 719.14 342.01 C 716.98 336.04, 715.77 332.75, 713.98 330.89 C 712.18 329.02, 709.90 330.17, 710.16 332.68" style="stroke: black; fill: black;"/></svg>